<svg width="237" height="213" viewBox="0 0 237 213" fill="none" xmlns="http://www.w3.org/2000/svg">
    <mask id="mask0_1554_65" style="mask-type:luminance" maskUnits="userSpaceOnUse" x="0" y="0" width="237"
        height="213">
        <path d="M0.612793 0.770996H236.78V212.508H0.612793V0.770996Z" fill="white" />
    </mask>
    <g mask="url(#mask0_1554_65)">
        <path
            d="M236.933 212.708H182.97L165.332 195.078C159.868 198.709 154.052 201.844 148.028 204.389C134.954 209.921 121.074 212.725 106.774 212.725C92.4745 212.725 78.5945 209.921 65.5163 204.389C59.2296 201.729 53.1762 198.438 47.5046 194.615C41.8966 190.827 36.6237 186.479 31.8344 181.686C27.0409 176.896 22.6928 171.624 18.9047 166.016C15.0784 160.352 11.7908 154.291 9.13527 148.004C3.5994 134.926 0.79541 121.046 0.79541 106.746C0.79541 92.4458 3.5994 78.5701 9.13527 65.4876C11.7908 59.2052 15.0826 53.1475 18.9047 47.4802C22.6971 41.8722 27.0409 36.5993 31.8344 31.8058C36.6237 27.0165 41.8966 22.6642 47.5046 18.8803C53.1719 15.0497 59.2296 11.7621 65.5163 9.10661C78.5945 3.57499 92.4745 0.770996 106.774 0.770996C121.074 0.770996 134.954 3.57499 148.033 9.10661C154.315 11.7621 160.373 15.054 166.044 18.8845C171.648 22.6727 176.925 27.025 181.714 31.8143C186.504 36.6078 190.856 41.8849 194.64 47.4929C198.47 53.1603 201.758 59.2306 204.414 65.5131C205.877 68.9746 207.154 72.4743 208.231 76.0927H167.236C156.012 54.0087 133.122 38.9494 106.774 38.9494C69.3808 38.9494 38.9526 69.3521 38.9526 106.746C38.9526 144.144 69.3808 174.563 106.774 174.563C131.662 174.563 153.462 161.082 165.259 141.047L192.824 168.603L236.933 212.708ZM106.8 106.746V106.733C106.8 117.27 115.314 125.814 125.855 125.814H171.86C171.457 127.142 171.02 128.52 170.541 129.844L199.242 158.55C201.16 155.126 202.895 151.605 204.414 148C209.945 134.926 212.749 121.05 212.749 106.75C212.749 100.298 212.172 93.956 211.04 87.682H125.855C115.314 87.682 106.8 96.2085 106.8 106.746Z"
            fill="url(#paint0_linear_1554_65)" />
    </g>
    <defs>
        <linearGradient id="paint0_linear_1554_65" x1="118.864" y1="0.770996" x2="118.864" y2="212.725"
            gradientUnits="userSpaceOnUse">
            <stop stop-color="#f3f3f3" />
            <stop offset="0.485" stop-color="#f3f3f3" />
            <stop offset="1" stop-color="#f3f3f3" />
        </linearGradient>
    </defs>
</svg>